<svg xmlns="http://www.w3.org/2000/svg" width="24" height="24" viewBox="0 0 24 24" fill="none" stroke="currentColor" stroke-width="2" stroke-linecap="round" stroke-linejoin="round" class="lucide lucide-car">
  <path d="M19 17h2c.6 0 1-.4 1-1v-3c0-.6-.4-1-1-1h-2"/>
  <path d="M5-3h4l2.69 5.39a2 2 0 0 0 1.79 1.09h4.6a2 2 0 0 1 2 2.34l-.8 4A2 2 0 0 1 17.5 17H2c-.5-1.5-.5-2 1-2h12"/>
  <path d="M9 17H6a1 1 0 0 1-1-1v-1a1 1 0 0 1 1-1h3"/>
  <circle cx="5" cy="17" r="2"/>
  <circle cx="15" cy="17" r="2"/>
</svg> 